<svg xmlns="http://www.w3.org/2000/svg" xmlns:xlink="http://www.w3.org/1999/xlink" width="500" zoomAndPan="magnify" viewBox="0 0 375 374.999991" height="500" preserveAspectRatio="xMidYMid meet" version="1.0"><defs><g/></defs><path fill="#f3d55b" d="M 182.808594 71.550781 L 182.867188 71.550781 L 289.289062 43.003906 C 295.566406 41.351562 301.996094 45.078125 303.679688 51.34375 L 318.832031 107.964844 L 325.703125 133.628906 L 325.703125 133.6875 L 358.007812 254.089844 C 359.6875 260.347656 355.984375 266.789062 349.726562 268.480469 L 284.945312 285.808594 Z M 182.808594 71.550781 " fill-opacity="1" fill-rule="nonzero"/><path fill="#f9eab0" d="M 84.019531 49.113281 C 86.78125 47.261719 90.210938 46.703125 93.414062 47.585938 L 320.359375 108.378906 C 326.617188 110.066406 330.324219 116.507812 328.640625 122.765625 L 267.851562 349.707031 C 266.164062 355.96875 259.722656 359.671875 253.460938 357.992188 L 26.519531 297.199219 C 20.261719 295.511719 16.554688 289.070312 18.238281 282.808594 L 67.105469 100.386719 Z M 84.019531 49.113281 " fill-opacity="1" fill-rule="nonzero"/><path fill="#802f34" d="M 283.382812 149.957031 C 282.867188 149.960938 282.359375 149.890625 281.863281 149.757812 L 198.316406 127.398438 C 195.183594 126.558594 193.328125 123.339844 194.167969 120.207031 C 195.003906 117.070312 198.226562 115.214844 201.359375 116.050781 L 284.902344 138.441406 C 287.75 139.203125 289.589844 141.957031 289.210938 144.878906 C 288.824219 147.800781 286.335938 149.984375 283.386719 149.988281 Z M 283.382812 149.957031 " fill-opacity="1" fill-rule="nonzero"/><path fill="#802f34" d="M 274.253906 184.023438 C 273.742188 184.023438 273.230469 183.957031 272.734375 183.824219 L 215.9375 168.628906 C 213.902344 168.09375 212.308594 166.511719 211.757812 164.480469 C 211.210938 162.449219 211.792969 160.277344 213.28125 158.789062 C 214.769531 157.304688 216.945312 156.726562 218.972656 157.28125 L 275.769531 172.476562 C 278.617188 173.238281 280.457031 175.992188 280.078125 178.914062 C 279.691406 181.835938 277.203125 184.023438 274.253906 184.023438 Z M 274.253906 184.023438 " fill-opacity="1" fill-rule="nonzero"/><path fill="#802f34" d="M 265.15625 218.089844 C 264.640625 218.089844 264.128906 218.023438 263.628906 217.890625 L 192.976562 198.925781 C 189.839844 198.082031 187.984375 194.859375 188.824219 191.726562 C 189.667969 188.59375 192.890625 186.734375 196.023438 187.578125 L 266.679688 206.542969 C 269.527344 207.304688 271.367188 210.058594 270.984375 212.984375 C 270.597656 215.90625 268.105469 218.089844 265.15625 218.089844 Z M 265.15625 218.089844 " fill-opacity="1" fill-rule="nonzero"/><path fill="#802f34" d="M 91.5 208.019531 C 90.984375 208.023438 90.472656 207.957031 89.976562 207.824219 L 72.945312 203.257812 C 69.8125 202.417969 67.953125 199.195312 68.796875 196.058594 C 69.636719 192.929688 72.859375 191.070312 75.992188 191.914062 L 93.023438 196.472656 C 95.871094 197.238281 97.710938 199.992188 97.328125 202.917969 C 96.941406 205.835938 94.449219 208.023438 91.5 208.019531 Z M 91.5 208.019531 " fill-opacity="1" fill-rule="nonzero"/><path fill="#802f34" d="M 256.015625 252.101562 C 255.503906 252.101562 254.992188 252.03125 254.496094 251.898438 L 124.015625 216.914062 C 120.882812 216.074219 119.023438 212.851562 119.863281 209.71875 C 120.703125 206.585938 123.925781 204.726562 127.058594 205.566406 L 257.539062 240.523438 C 260.386719 241.289062 262.230469 244.039062 261.84375 246.964844 C 261.460938 249.882812 258.972656 252.070312 256.023438 252.070312 Z M 256.015625 252.101562 " fill-opacity="1" fill-rule="nonzero"/><path fill="#802f34" d="M 82.375 242.058594 C 81.859375 242.058594 81.347656 241.992188 80.851562 241.859375 L 63.824219 237.300781 C 60.6875 236.460938 58.832031 233.238281 59.671875 230.105469 C 60.507812 226.972656 63.734375 225.113281 66.863281 225.953125 L 83.894531 230.511719 C 86.742188 231.273438 88.585938 234.03125 88.199219 236.953125 C 87.816406 239.875 85.324219 242.058594 82.375 242.058594 Z M 82.375 242.058594 " fill-opacity="1" fill-rule="nonzero"/><path fill="#802f34" d="M 246.902344 286.140625 C 246.386719 286.140625 245.878906 286.074219 245.382812 285.941406 L 114.894531 250.976562 C 112.867188 250.433594 111.285156 248.851562 110.742188 246.828125 C 110.199219 244.800781 110.78125 242.632812 112.265625 241.152344 C 113.746094 239.667969 115.910156 239.089844 117.9375 239.632812 L 248.417969 274.59375 C 251.265625 275.355469 253.105469 278.109375 252.722656 281.03125 C 252.339844 283.953125 249.851562 286.140625 246.902344 286.140625 Z M 246.902344 286.140625 " fill-opacity="1" fill-rule="nonzero"/><path fill="#bdc3c7" d="M 187.917969 195.417969 L 149.214844 182.496094 L 182.457031 149.253906 L 195.375 187.960938 C 196.070312 190.074219 195.511719 192.402344 193.9375 193.980469 C 192.363281 195.554688 190.035156 196.109375 187.917969 195.417969 Z M 187.917969 195.417969 " fill-opacity="1" fill-rule="nonzero"/><path fill="#fb7b76" d="M 74.503906 41.300781 L 41.261719 74.546875 L 24.640625 57.921875 C 15.460938 48.742188 15.460938 33.863281 24.640625 24.683594 C 33.820312 15.5 48.703125 15.5 57.882812 24.683594 Z M 74.503906 41.300781 " fill-opacity="1" fill-rule="nonzero"/><path fill="#e64c3c" d="M 182.457031 149.253906 L 170.007812 161.703125 L 170.007812 161.765625 L 161.722656 170.042969 L 161.664062 170.042969 L 149.214844 182.496094 L 57.882812 91.167969 L 70.394531 78.714844 L 78.675781 70.433594 L 91.125 57.921875 Z M 182.457031 149.253906 " fill-opacity="1" fill-rule="nonzero"/><path fill="#bdc3c7" d="M 41.265625 74.546875 L 74.507812 41.300781 L 91.125 57.925781 L 57.886719 91.167969 Z M 41.265625 74.546875 " fill-opacity="1" fill-rule="nonzero"/><path fill="#c03a2b" d="M 99.40625 99.449219 C 98.289062 100.535156 96.792969 101.148438 95.238281 101.152344 C 93.695312 101.144531 92.21875 100.535156 91.125 99.449219 L 70.394531 78.714844 L 78.675781 70.433594 L 99.40625 91.167969 C 101.683594 93.460938 101.683594 97.15625 99.40625 99.449219 Z M 99.40625 99.449219 " fill-opacity="1" fill-rule="nonzero"/><path fill="#c03a2b" d="M 170.007812 161.703125 L 170.007812 161.765625 L 161.722656 170.042969 L 161.664062 170.042969 L 107.691406 116.070312 C 106.199219 114.582031 105.617188 112.410156 106.160156 110.375 C 106.707031 108.339844 108.296875 106.75 110.332031 106.203125 C 112.367188 105.660156 114.539062 106.242188 116.03125 107.730469 Z M 170.007812 161.703125 " fill-opacity="1" fill-rule="nonzero"/><g fill="#000000" fill-opacity="1"><g transform="translate(99.972883, 295.555049)"><g><path d="M 7.421875 -12.9375 L 3.796875 0.984375 L 1.078125 0.28125 L 6.078125 -18.9375 L 9.859375 -17.953125 L 9.96875 -5.640625 L 12.96875 -17.140625 L 15.65625 -16.453125 L 10.65625 2.765625 L 7.546875 1.96875 Z M 7.421875 -12.9375 "/></g></g></g><g fill="#000000" fill-opacity="1"><g transform="translate(111.697256, 298.603476)"><g><path d="M 5.015625 -3.421875 C 4.835938 -2.722656 4.851562 -2.191406 5.0625 -1.828125 C 5.269531 -1.472656 5.613281 -1.234375 6.09375 -1.109375 C 6.570312 -0.992188 6.988281 -1.035156 7.34375 -1.234375 C 7.695312 -1.441406 7.960938 -1.894531 8.140625 -2.59375 L 10.84375 -12.96875 C 11.03125 -13.664062 11.019531 -14.191406 10.8125 -14.546875 C 10.601562 -14.910156 10.257812 -15.148438 9.78125 -15.265625 C 9.300781 -15.390625 8.882812 -15.347656 8.53125 -15.140625 C 8.175781 -14.941406 7.90625 -14.492188 7.71875 -13.796875 Z M 4.640625 -14.390625 C 5.046875 -15.941406 5.75 -17.035156 6.75 -17.671875 C 7.757812 -18.304688 9.007812 -18.425781 10.5 -18.03125 C 11.988281 -17.644531 13.015625 -16.929688 13.578125 -15.890625 C 14.148438 -14.847656 14.234375 -13.550781 13.828125 -12 L 11.234375 -2 C 10.828125 -0.445312 10.117188 0.644531 9.109375 1.28125 C 8.109375 1.914062 6.863281 2.039062 5.375 1.65625 C 3.882812 1.257812 2.851562 0.539062 2.28125 -0.5 C 1.71875 -1.539062 1.640625 -2.835938 2.046875 -4.390625 Z M 4.640625 -14.390625 "/></g></g></g><g fill="#000000" fill-opacity="1"><g transform="translate(122.57044, 301.430587)"><g><path d="M 5.265625 -19.140625 L 14.625 -16.71875 L 13.90625 -13.984375 L 10.734375 -14.8125 L 6.453125 1.671875 L 3.4375 0.890625 L 7.71875 -15.59375 L 4.546875 -16.40625 Z M 5.265625 -19.140625 "/></g></g></g><g fill="#000000" fill-opacity="1"><g transform="translate(132.455163, 304.000691)"><g><path d="M 7 -10.046875 L 11.15625 -8.953125 L 10.4375 -6.21875 L 6.28125 -7.3125 L 4.828125 -1.6875 L 10.046875 -0.328125 L 9.328125 2.421875 L 1.109375 0.28125 L 6.109375 -18.9375 L 14.328125 -16.796875 L 13.609375 -14.0625 L 8.390625 -15.421875 Z M 7 -10.046875 "/></g></g></g><g fill="#000000" fill-opacity="1"><g transform="translate(142.559544, 306.627908)"><g><path d="M 4.5 -14.421875 C 4.90625 -15.972656 5.585938 -17.070312 6.546875 -17.71875 C 7.515625 -18.363281 8.738281 -18.492188 10.21875 -18.109375 C 11.707031 -17.722656 12.710938 -17.015625 13.234375 -15.984375 C 13.765625 -14.953125 13.828125 -13.660156 13.421875 -12.109375 L 13.234375 -11.359375 L 10.375 -12.109375 L 10.609375 -13.046875 C 10.796875 -13.742188 10.789062 -14.265625 10.59375 -14.609375 C 10.394531 -14.960938 10.0625 -15.203125 9.59375 -15.328125 C 9.113281 -15.453125 8.703125 -15.40625 8.359375 -15.1875 C 8.023438 -14.976562 7.765625 -14.523438 7.578125 -13.828125 C 7.410156 -13.171875 7.40625 -12.550781 7.5625 -11.96875 C 7.726562 -11.394531 7.96875 -10.828125 8.28125 -10.265625 C 8.601562 -9.703125 8.957031 -9.128906 9.34375 -8.546875 C 9.738281 -7.972656 10.082031 -7.359375 10.375 -6.703125 C 10.675781 -6.054688 10.890625 -5.359375 11.015625 -4.609375 C 11.140625 -3.859375 11.082031 -3.023438 10.84375 -2.109375 C 10.4375 -0.554688 9.742188 0.539062 8.765625 1.1875 C 7.785156 1.832031 6.554688 1.960938 5.078125 1.578125 C 3.585938 1.179688 2.570312 0.46875 2.03125 -0.5625 C 1.5 -1.59375 1.4375 -2.882812 1.84375 -4.4375 L 2.1875 -5.75 L 5.046875 -5.015625 L 4.640625 -3.515625 C 4.460938 -2.816406 4.476562 -2.296875 4.6875 -1.953125 C 4.90625 -1.609375 5.25 -1.375 5.71875 -1.25 C 6.195312 -1.125 6.613281 -1.160156 6.96875 -1.359375 C 7.320312 -1.554688 7.585938 -2.003906 7.765625 -2.703125 C 7.941406 -3.359375 7.945312 -3.972656 7.78125 -4.546875 C 7.625 -5.128906 7.382812 -5.703125 7.0625 -6.265625 C 6.738281 -6.835938 6.378906 -7.414062 5.984375 -8 C 5.597656 -8.582031 5.253906 -9.191406 4.953125 -9.828125 C 4.648438 -10.472656 4.4375 -11.171875 4.3125 -11.921875 C 4.195312 -12.671875 4.257812 -13.503906 4.5 -14.421875 Z M 4.5 -14.421875 "/></g></g></g><g fill="#000000" fill-opacity="1"><g transform="translate(152.828659, 309.297957)"><g/></g></g><g fill="#000000" fill-opacity="1"><g transform="translate(157.084585, 310.40453)"><g><path d="M 10.875 2.828125 L 7.828125 2.03125 L 8.203125 -1.59375 L 4.5 -2.5625 L 3.0625 0.796875 L 0.296875 0.078125 L 8.375 -18.34375 L 12.796875 -17.1875 Z M 5.5625 -5.0625 L 8.46875 -4.296875 L 9.546875 -14.390625 Z M 5.5625 -5.0625 "/></g></g></g><g fill="#000000" fill-opacity="1"><g transform="translate(168.259813, 313.310175)"><g><path d="M 10.546875 -17.78125 C 12.066406 -17.382812 13.09375 -16.6875 13.625 -15.6875 C 14.164062 -14.6875 14.234375 -13.410156 13.828125 -11.859375 L 13.171875 -9.375 C 12.765625 -7.8125 12.082031 -6.722656 11.125 -6.109375 C 10.175781 -5.503906 8.941406 -5.398438 7.421875 -5.796875 L 5.984375 -6.171875 L 4.109375 1.0625 L 1.109375 0.28125 L 6.109375 -18.9375 Z M 8.390625 -15.421875 L 6.703125 -8.90625 L 8.140625 -8.53125 C 8.617188 -8.40625 9.019531 -8.4375 9.34375 -8.625 C 9.664062 -8.8125 9.914062 -9.253906 10.09375 -9.953125 L 10.84375 -12.84375 C 11.019531 -13.539062 11.015625 -14.050781 10.828125 -14.375 C 10.640625 -14.695312 10.304688 -14.921875 9.828125 -15.046875 Z M 8.390625 -15.421875 "/></g></g></g><g fill="#000000" fill-opacity="1"><g transform="translate(178.611315, 316.001645)"><g><path d="M 10.546875 -17.78125 C 12.066406 -17.382812 13.09375 -16.6875 13.625 -15.6875 C 14.164062 -14.6875 14.234375 -13.410156 13.828125 -11.859375 L 13.171875 -9.375 C 12.765625 -7.8125 12.082031 -6.722656 11.125 -6.109375 C 10.175781 -5.503906 8.941406 -5.398438 7.421875 -5.796875 L 5.984375 -6.171875 L 4.109375 1.0625 L 1.109375 0.28125 L 6.109375 -18.9375 Z M 8.390625 -15.421875 L 6.703125 -8.90625 L 8.140625 -8.53125 C 8.617188 -8.40625 9.019531 -8.4375 9.34375 -8.625 C 9.664062 -8.8125 9.914062 -9.253906 10.09375 -9.953125 L 10.84375 -12.84375 C 11.019531 -13.539062 11.015625 -14.050781 10.828125 -14.375 C 10.640625 -14.695312 10.304688 -14.921875 9.828125 -15.046875 Z M 8.390625 -15.421875 "/></g></g></g></svg>